<svg id="Ebene_1" data-name="Ebene 1" xmlns="http://www.w3.org/2000/svg" viewBox="0 0 185.6 200"><defs><style>.cls-1{fill:#37474f;}.cls-2{fill:#263238;}.cls-3{fill:#fff;}</style></defs><g id="Layer_2" data-name="Layer 2"><g id="Layer_1-2" data-name="Layer 1-2"><polygon class="cls-1" points="92.4 0 92.4 0 92.4 0 0 33.3 14 156.1 92.4 200 92.4 200 92.4 200 171.3 156.1 185.6 33.3 92.4 0"/><polygon class="cls-2" points="92.4 0 92.4 22.2 92.4 22.2 92.4 123.2 92.4 123.2 92.4 200 92.4 200 171.3 156.1 185.6 33.3 92.4 0"/></g></g><path class="cls-3" d="M92.4,43.75a37.51,37.51,0,0,0-33,55.32l30.95,56a2.34,2.34,0,0,0,4.1,0l31-56a37.51,37.51,0,0,0-33-55.3Zm0,56.25a18.75,18.75,0,1,1,18.75-18.75A18.77,18.77,0,0,1,92.4,100Z"/></svg>